<svg xmlns="http://www.w3.org/2000/svg" xmlns:xlink="http://www.w3.org/1999/xlink" width="324" height="404" viewBox="0 0 324 404">
  <defs>
    <linearGradient id="linear-gradient" x1="0.202" y1="1.15" x2="0.872" gradientUnits="objectBoundingBox">
      <stop offset="0" stop-color="#fcc96c"/>
      <stop offset="0.482" stop-color="#cf3d75"/>
      <stop offset="1" stop-color="#586ecc"/>
    </linearGradient>
    <clipPath id="clip-path">
      <rect id="矩形_457" data-name="矩形 457" width="22" height="19.25" fill="#999"/>
    </clipPath>
    <clipPath id="clip-画板_1">
      <rect width="324" height="404"/>
    </clipPath>
  </defs>
  <g id="画板_1" data-name="画板 – 1" clip-path="url(#clip-画板_1)">
    <g id="组_1946" data-name="组 1946" transform="translate(1131 693)">
      <g id="分享功能" transform="translate(-2375 -1645)">
        <g id="组件_9_3" data-name="组件 9 – 3" transform="translate(1244 976)">
          <g id="椭圆_161" data-name="椭圆 161" fill="none" stroke="#d1d1d1" stroke-width="1">
            <circle cx="22.5" cy="22.5" r="22.5" stroke="none"/>
            <circle cx="22.5" cy="22.5" r="22" fill="none"/>
          </g>
          <path id="路径_2101" data-name="路径 2101" d="M195.978,137.885V135.37c0-1.135.274-1.677,2.037-1.677h2.156V129.5h-3.634c-4.522,0-5.962,2.008-5.962,5.566v2.819H187.5v4.286h3.074v12.671h5.4V142.171h3.747l.5-4.286Z" transform="translate(-171.5 -119.5)" fill="#afafaf"/>
        </g>
        <g id="组件_10_3" data-name="组件 10 – 3" transform="translate(1294 976)">
          <g id="椭圆_160" data-name="椭圆 160" fill="none" stroke="#d1d1d1" stroke-width="1">
            <circle cx="22.5" cy="22.5" r="22.5" stroke="none"/>
            <circle cx="22.5" cy="22.5" r="22" fill="none"/>
          </g>
          <g id="组_1863" data-name="组 1863" transform="translate(-461.747 -380.751)">
            <g id="组_1864" data-name="组 1864" transform="translate(470 390.891)">
              <path id="路径_2107" data-name="路径 2107" d="M422.074,406.391c0-6.282-6.3-11.391-14.037-11.391S394,400.109,394,406.391c0,5.631,4.995,10.347,11.74,11.239.456.1,1.079.3,1.238.692a2.9,2.9,0,0,1,.045,1.268l-.2,1.2c-.061.356-.281,1.387,1.217.756s8.083-4.759,11.028-8.148h0a10.13,10.13,0,0,0,3.009-7.009Z" transform="translate(-394 -395)" fill="#afafaf" fill-rule="evenodd"/>
              <path id="路径_2108" data-name="路径 2108" d="M397.5,403.7v-4.859a.272.272,0,0,0-.274-.271h-.985a.274.274,0,0,0-.274.271v6.118a.271.271,0,0,0,.077.187l0,.007h0v0a.275.275,0,0,0,.189.075h3.933a.273.273,0,0,0,.274-.274v-.983a.273.273,0,0,0-.274-.274Z" transform="translate(-391.364 -390.215)" fill="#fff" fill-rule="evenodd"/>
              <path id="路径_2109" data-name="路径 2109" d="M406.41,400.1a.272.272,0,0,0,.271-.274v-.983a.272.272,0,0,0-.271-.274h-3.935a.267.267,0,0,0-.189.077l-.007.007a.27.27,0,0,0-.075.187v6.118a.269.269,0,0,0,.075.187l.009.009a.269.269,0,0,0,.187.075h3.935a.272.272,0,0,0,.271-.271v-.985a.272.272,0,0,0-.271-.274h-2.676v-1.034h2.676a.274.274,0,0,0,.271-.274v-.985a.274.274,0,0,0-.271-.274h-2.676V400.1Z" transform="translate(-383.011 -390.215)" fill="#fff" fill-rule="evenodd"/>
              <path id="路径_2110" data-name="路径 2110" d="M399.5,405.233a.274.274,0,0,0,.274-.271v-6.118a.274.274,0,0,0-.274-.271h-.985a.274.274,0,0,0-.274.271v6.118a.273.273,0,0,0,.274.271Z" transform="translate(-388.317 -390.215)" fill="#fff" fill-rule="evenodd"/>
              <path id="路径_2111" data-name="路径 2111" d="M404.854,405.233a.274.274,0,0,0,.274-.271v-6.118a.274.274,0,0,0-.274-.271h-.985a.272.272,0,0,0-.274.271v3.636l-2.8-3.785-.021-.028-.019-.019-.026-.023-.014-.009-.023-.014-.026-.009-.023-.009-.026,0-.026,0h-1.008a.272.272,0,0,0-.274.271v6.118a.272.272,0,0,0,.274.271h.985a.274.274,0,0,0,.274-.271v-3.633l2.8,3.79a.278.278,0,0,0,.07.068l.019.012.021.012.014,0,.026.009h0a.222.222,0,0,0,.07.009Z" transform="translate(-386.891 -390.215)" fill="#fff" fill-rule="evenodd"/>
            </g>
          </g>
        </g>
        <g id="组件_11_3" data-name="组件 11 – 3" transform="translate(1344 976)">
          <g id="椭圆_162" data-name="椭圆 162" fill="none" stroke="#d1d1d1" stroke-width="1">
            <circle cx="22.5" cy="22.5" r="22.5" stroke="none"/>
            <circle cx="22.5" cy="22.5" r="22" fill="none"/>
          </g>
          <g id="组_1866" data-name="组 1866" transform="translate(10 10)">
            <path id="路径_2112" data-name="路径 2112" d="M17.738,24.1H7.262A7.143,7.143,0,0,1,0,17.1V7A7.143,7.143,0,0,1,7.262,0H17.738A7.143,7.143,0,0,1,25,7V17.1A7.143,7.143,0,0,1,17.738,24.1ZM7.262,1.883A5.222,5.222,0,0,0,1.953,7V17.1a5.222,5.222,0,0,0,5.309,5.118H17.738A5.222,5.222,0,0,0,23.047,17.1V7a5.222,5.222,0,0,0-5.309-5.118Z" fill="#afafaf"/>
            <path id="路径_2113" data-name="路径 2113" d="M124.946,130.991a6.51,6.51,0,1,1,6.946-6.5A6.74,6.74,0,0,1,124.946,130.991Zm0-11.108a4.623,4.623,0,1,0,4.933,4.613A4.786,4.786,0,0,0,124.946,119.883Z" transform="translate(-112.446 -112.446)" fill="#afafaf"/>
            <circle id="椭圆_163" data-name="椭圆 163" cx="1.5" cy="1.5" r="1.5" transform="translate(17.725 4.1)" fill="#afafaf"/>
          </g>
        </g>
      </g>
      <g id="分享功能-2" data-name="分享功能" transform="translate(-2375 -1590)">
        <g id="组件_9_4" data-name="组件 9 – 4" transform="translate(1244 976)">
          <g id="路径_2130" data-name="路径 2130" fill="none">
            <path d="M22.5,0A22.5,22.5,0,1,1,0,22.5,22.5,22.5,0,0,1,22.5,0Z" stroke="none"/>
            <path d="M 22.5 1 C 19.59708023071289 1 16.78152084350586 1.568321228027344 14.13154029846191 2.689170837402344 C 11.57144927978516 3.771991729736328 9.272048950195312 5.322360992431641 7.297199249267578 7.297199249267578 C 5.322360992431641 9.272048950195312 3.771991729736328 11.57144927978516 2.689170837402344 14.13154029846191 C 1.568321228027344 16.78152084350586 1 19.59708023071289 1 22.5 C 1 25.40291976928711 1.568321228027344 28.21847915649414 2.689170837402344 30.86845970153809 C 3.771991729736328 33.42855072021484 5.322360992431641 35.72795104980469 7.297199249267578 37.70280075073242 C 9.272048950195312 39.67763900756836 11.57144927978516 41.22800827026367 14.13154029846191 42.31082916259766 C 16.78152084350586 43.43167877197266 19.59708023071289 44 22.5 44 C 25.40291976928711 44 28.21847915649414 43.43167877197266 30.86845970153809 42.31082916259766 C 33.42855072021484 41.22800827026367 35.72795104980469 39.67763900756836 37.70280075073242 37.70280075073242 C 39.67763900756836 35.72795104980469 41.22800827026367 33.42855072021484 42.31082916259766 30.86845970153809 C 43.43167877197266 28.21847915649414 44 25.40291976928711 44 22.5 C 44 19.59708023071289 43.43167877197266 16.78152084350586 42.31082916259766 14.13154029846191 C 41.22800827026367 11.57144927978516 39.67763900756836 9.272048950195312 37.70280075073242 7.297199249267578 C 35.72795104980469 5.322360992431641 33.42855072021484 3.771991729736328 30.86845970153809 2.689170837402344 C 28.21847915649414 1.568321228027344 25.40291976928711 1 22.5 1 M 22.5 0 C 34.92641067504883 0 45 10.07358932495117 45 22.5 C 45 34.92641067504883 34.92641067504883 45 22.5 45 C 10.07358932495117 45 0 34.92641067504883 0 22.5 C 0 10.07358932495117 10.07358932495117 0 22.5 0 Z" stroke="none" fill="#317ad9"/>
          </g>
          <path id="路径_2101-2" data-name="路径 2101" d="M195.978,137.885V135.37c0-1.135.274-1.677,2.037-1.677h2.156V129.5h-3.634c-4.522,0-5.962,2.008-5.962,5.566v2.819H187.5v4.286h3.074v12.671h5.4V142.171h3.747l.5-4.286Z" transform="translate(-171.5 -119.5)" fill="#317ad9"/>
        </g>
        <g id="组件_10_4" data-name="组件 10 – 4" transform="translate(1294 976)">
          <g id="路径_2131" data-name="路径 2131" fill="none">
            <path d="M22.5,0A22.5,22.5,0,1,1,0,22.5,22.5,22.5,0,0,1,22.5,0Z" stroke="none"/>
            <path d="M 22.5 1 C 19.59708023071289 1 16.78152084350586 1.568321228027344 14.13154029846191 2.689170837402344 C 11.57144927978516 3.771991729736328 9.272048950195312 5.322360992431641 7.297199249267578 7.297199249267578 C 5.322360992431641 9.272048950195312 3.771991729736328 11.57144927978516 2.689170837402344 14.13154029846191 C 1.568321228027344 16.78152084350586 1 19.59708023071289 1 22.5 C 1 25.40291976928711 1.568321228027344 28.21847915649414 2.689170837402344 30.86845970153809 C 3.771991729736328 33.42855072021484 5.322360992431641 35.72795104980469 7.297199249267578 37.70280075073242 C 9.272048950195312 39.67763900756836 11.57144927978516 41.22800827026367 14.13154029846191 42.31082916259766 C 16.78152084350586 43.43167877197266 19.59708023071289 44 22.5 44 C 25.40291976928711 44 28.21847915649414 43.43167877197266 30.86845970153809 42.31082916259766 C 33.42855072021484 41.22800827026367 35.72795104980469 39.67763900756836 37.70280075073242 37.70280075073242 C 39.67763900756836 35.72795104980469 41.22800827026367 33.42855072021484 42.31082916259766 30.86845970153809 C 43.43167877197266 28.21847915649414 44 25.40291976928711 44 22.5 C 44 19.59708023071289 43.43167877197266 16.78152084350586 42.31082916259766 14.13154029846191 C 41.22800827026367 11.57144927978516 39.67763900756836 9.272048950195312 37.70280075073242 7.297199249267578 C 35.72795104980469 5.322360992431641 33.42855072021484 3.771991729736328 30.86845970153809 2.689170837402344 C 28.21847915649414 1.568321228027344 25.40291976928711 1 22.5 1 M 22.5 0 C 34.92641067504883 0 45 10.07358932495117 45 22.5 C 45 34.92641067504883 34.92641067504883 45 22.5 45 C 10.07358932495117 45 0 34.92641067504883 0 22.5 C 0 10.07358932495117 10.07358932495117 0 22.5 0 Z" stroke="none" fill="#3fbe3f"/>
          </g>
          <g id="组_1863-2" data-name="组 1863" transform="translate(-461.747 -380.751)">
            <g id="组_1864-2" data-name="组 1864" transform="translate(470 390.891)">
              <path id="路径_2107-2" data-name="路径 2107" d="M422.074,406.391c0-6.282-6.3-11.391-14.037-11.391S394,400.109,394,406.391c0,5.631,4.995,10.347,11.74,11.239.456.1,1.079.3,1.238.692a2.9,2.9,0,0,1,.045,1.268l-.2,1.2c-.061.356-.281,1.387,1.217.756s8.083-4.759,11.028-8.148h0a10.13,10.13,0,0,0,3.009-7.009Z" transform="translate(-394 -395)" fill="#00c200" fill-rule="evenodd"/>
              <path id="路径_2108-2" data-name="路径 2108" d="M397.5,403.7v-4.859a.272.272,0,0,0-.274-.271h-.985a.274.274,0,0,0-.274.271v6.118a.271.271,0,0,0,.077.187l0,.007h0v0a.275.275,0,0,0,.189.075h3.933a.273.273,0,0,0,.274-.274v-.983a.273.273,0,0,0-.274-.274Z" transform="translate(-391.364 -390.215)" fill="#fff" fill-rule="evenodd"/>
              <path id="路径_2109-2" data-name="路径 2109" d="M406.41,400.1a.272.272,0,0,0,.271-.274v-.983a.272.272,0,0,0-.271-.274h-3.935a.267.267,0,0,0-.189.077l-.007.007a.27.27,0,0,0-.075.187v6.118a.269.269,0,0,0,.075.187l.009.009a.269.269,0,0,0,.187.075h3.935a.272.272,0,0,0,.271-.271v-.985a.272.272,0,0,0-.271-.274h-2.676v-1.034h2.676a.274.274,0,0,0,.271-.274v-.985a.274.274,0,0,0-.271-.274h-2.676V400.1Z" transform="translate(-383.011 -390.215)" fill="#fff" fill-rule="evenodd"/>
              <path id="路径_2110-2" data-name="路径 2110" d="M399.5,405.233a.274.274,0,0,0,.274-.271v-6.118a.274.274,0,0,0-.274-.271h-.985a.274.274,0,0,0-.274.271v6.118a.273.273,0,0,0,.274.271Z" transform="translate(-388.317 -390.215)" fill="#fff" fill-rule="evenodd"/>
              <path id="路径_2111-2" data-name="路径 2111" d="M404.854,405.233a.274.274,0,0,0,.274-.271v-6.118a.274.274,0,0,0-.274-.271h-.985a.272.272,0,0,0-.274.271v3.636l-2.8-3.785-.021-.028-.019-.019-.026-.023-.014-.009-.023-.014-.026-.009-.023-.009-.026,0-.026,0h-1.008a.272.272,0,0,0-.274.271v6.118a.272.272,0,0,0,.274.271h.985a.274.274,0,0,0,.274-.271v-3.633l2.8,3.79a.278.278,0,0,0,.07.068l.019.012.021.012.014,0,.026.009h0a.222.222,0,0,0,.07.009Z" transform="translate(-386.891 -390.215)" fill="#fff" fill-rule="evenodd"/>
            </g>
          </g>
        </g>
        <g id="组件_11_4" data-name="组件 11 – 4" transform="translate(1344 976)">
          <g id="椭圆_162-2" data-name="椭圆 162" fill="none" stroke="#d97dbd" stroke-width="1">
            <circle cx="22.5" cy="22.5" r="22.5" stroke="none"/>
            <circle cx="22.5" cy="22.5" r="22" fill="none"/>
          </g>
          <g id="组_1945" data-name="组 1945" transform="translate(10 10)">
            <path id="路径_2112-2" data-name="路径 2112" d="M17.738,24.1H7.262A7.143,7.143,0,0,1,0,17.1V7A7.143,7.143,0,0,1,7.262,0H17.738A7.143,7.143,0,0,1,25,7V17.1A7.143,7.143,0,0,1,17.738,24.1ZM7.262,1.883A5.222,5.222,0,0,0,1.953,7V17.1a5.222,5.222,0,0,0,5.309,5.118H17.738A5.222,5.222,0,0,0,23.047,17.1V7a5.222,5.222,0,0,0-5.309-5.118Z" transform="translate(0)" fill="url(#linear-gradient)"/>
            <path id="路径_2113-2" data-name="路径 2113" d="M124.948,130.959a6.5,6.5,0,1,1,6.948-6.479A6.733,6.733,0,0,1,124.948,130.959Zm0-11.081a4.613,4.613,0,1,0,4.934,4.6A4.782,4.782,0,0,0,124.948,119.878Z" transform="translate(-112.449 -112.416)" fill="url(#linear-gradient)"/>
            <circle id="椭圆_163-2" data-name="椭圆 163" cx="1.474" cy="1.474" r="1.474" transform="translate(17.767 4.11)" fill="url(#linear-gradient)"/>
          </g>
        </g>
      </g>
      <g id="分享功能-3" data-name="分享功能" transform="translate(-2386 -1511)">
        <text id="like" transform="translate(1255 968)" fill="#999" font-size="15" font-family="MicrosoftJhengHeiRegular, Microsoft JhengHei"><tspan x="0" y="0">like</tspan></text>
      </g>
      <g id="组_1938" data-name="组 1938" transform="translate(-1142 -753)">
        <path id="link-2" d="M14.53,19.752l-3.822,3.822A6.273,6.273,0,0,1,1.836,14.7L6.988,9.552A6.232,6.232,0,0,1,17.011,11.17s-1.659,1.661-1.686,1.686a4.055,4.055,0,0,0-6.781-1.75h0L3.391,16.258a4.074,4.074,0,0,0,5.762,5.76l2.568-2.568A7.915,7.915,0,0,0,14.53,19.752ZM14.7,1.838,10.917,5.623a8.009,8.009,0,0,1,2.808.3l2.534-2.53a4.073,4.073,0,1,1,5.76,5.761L16.9,14.27h0a4.084,4.084,0,0,1-5.759,0,3.978,3.978,0,0,1-1.013-1.741c-.029.025-.061.047-.089.073l-1.605,1.6a6.193,6.193,0,0,0,1.152,1.618,6.279,6.279,0,0,0,8.871,0l5.116-5.114A6.273,6.273,0,0,0,14.7,1.838Z" transform="translate(10.999 311)" fill="#999"/>
      </g>
      <g id="组_1951" data-name="组 1951" transform="translate(-1142 -710)">
        <path id="link-2-2" data-name="link-2" d="M14.53,19.752l-3.822,3.822A6.273,6.273,0,0,1,1.836,14.7L6.988,9.552A6.232,6.232,0,0,1,17.011,11.17s-1.659,1.661-1.686,1.686a4.055,4.055,0,0,0-6.781-1.75h0L3.391,16.258a4.074,4.074,0,0,0,5.762,5.76l2.568-2.568A7.915,7.915,0,0,0,14.53,19.752ZM14.7,1.838,10.917,5.623a8.009,8.009,0,0,1,2.808.3l2.534-2.53a4.073,4.073,0,1,1,5.76,5.761L16.9,14.27h0a4.084,4.084,0,0,1-5.759,0,3.978,3.978,0,0,1-1.013-1.741c-.029.025-.061.047-.089.073l-1.605,1.6a6.193,6.193,0,0,0,1.152,1.618,6.279,6.279,0,0,0,8.871,0l5.116-5.114A6.273,6.273,0,0,0,14.7,1.838Z" transform="translate(10.999 311)" fill="#fff"/>
      </g>
      <path id="路径_2128" data-name="路径 2128" d="M14.688,29.836A5.077,5.077,0,0,0,10.5,32.15a7.668,7.668,0,0,0-.5.807,7.661,7.661,0,0,0-.5-.807,5.037,5.037,0,0,0-8.043-.579A6.062,6.062,0,0,0,0,35.6a7.424,7.424,0,0,0,2.045,4.871,45.522,45.522,0,0,0,5.117,4.781c.774.66,1.574,1.342,2.426,2.087l.026.022a.586.586,0,0,0,.772,0l.026-.022c.852-.746,1.652-1.428,2.426-2.087a45.515,45.515,0,0,0,5.117-4.781A7.424,7.424,0,0,0,20,35.6a6.062,6.062,0,0,0-1.459-4.027A5.068,5.068,0,0,0,14.688,29.836Zm-2.61,14.523c-.667.569-1.354,1.154-2.078,1.783-.724-.629-1.411-1.214-2.078-1.783-4.065-3.464-6.75-5.752-6.75-8.76a4.893,4.893,0,0,1,1.166-3.252,3.911,3.911,0,0,1,2.974-1.339,3.95,3.95,0,0,1,3.233,1.82,6.947,6.947,0,0,1,.9,1.784.586.586,0,0,0,1.114,0,6.948,6.948,0,0,1,.9-1.784,3.867,3.867,0,0,1,6.208-.481A4.892,4.892,0,0,1,18.828,35.6C18.828,38.606,16.143,40.895,12.078,44.359Z" transform="translate(-1102 -562.836)" fill="#999"/>
      <path id="路径_2129" data-name="路径 2129" d="M14.688,29.836A5.077,5.077,0,0,0,10.5,32.15a7.668,7.668,0,0,0-.5.807,7.661,7.661,0,0,0-.5-.807,5.037,5.037,0,0,0-8.043-.579A6.062,6.062,0,0,0,0,35.6a7.424,7.424,0,0,0,2.045,4.871,45.522,45.522,0,0,0,5.117,4.781c.774.66,1.574,1.342,2.426,2.087l.026.022a.586.586,0,0,0,.772,0l.026-.022c.852-.746,1.652-1.428,2.426-2.087a45.515,45.515,0,0,0,5.117-4.781A7.424,7.424,0,0,0,20,35.6a6.062,6.062,0,0,0-1.459-4.027A5.068,5.068,0,0,0,14.688,29.836Z" transform="translate(-1102 -536.836)" fill="#f28f8f"/>
      <text id="Basic_icon" data-name="Basic icon" transform="translate(-1131 -461)" fill="#999" font-size="15" font-family="MicrosoftJhengHeiRegular, Microsoft JhengHei"><tspan x="0" y="0">Basic icon</tspan></text>
      <text id="Basic_icon_sml" data-name="Basic icon_sml" transform="translate(-1131 -349)" fill="#999" font-size="15" font-family="MicrosoftJhengHeiRegular, Microsoft JhengHei"><tspan x="0" y="0">Basic icon_sml</tspan></text>
      <text id="Social_icon" data-name="Social icon" transform="translate(-1093 -677)" fill="#999" font-size="15" font-family="MicrosoftJhengHeiRegular, Microsoft JhengHei"><tspan x="-37.592" y="0">Social icon</tspan></text>
      <g id="组_1967" data-name="组 1967" transform="translate(-1285 -766.946)">
        <g id="组_1966" data-name="组 1966" transform="translate(208 233)">
          <g id="组_1965" data-name="组 1965" transform="translate(0 -0.054)" clip-path="url(#clip-path)">
            <path id="路径_2142" data-name="路径 2142" d="M230.06,233.9a.647.647,0,0,0-.863-.741L208.416,241.1a.647.647,0,0,0,0,1.207l5.838,2.255v7.1a.647.647,0,0,0,1.224.291l2.414-4.791,5.892,4.373a.647.647,0,0,0,1-.331c5.5-18.038,5.264-17.253,5.273-17.3Zm-5.13,2.273-10.123,7.21-4.356-1.682Zm-9.385,8.272,8.824-6.284c-7.593,8.011-7.2,7.589-7.23,7.633-.049.066.086-.192-1.595,3.142Zm8.272,5.5L218.63,246.1l9.378-9.893Zm0,0" transform="translate(-208 -233.063)" fill="#999"/>
          </g>
        </g>
      </g>
      <g id="组_1968" data-name="组 1968" transform="translate(-1278 -740.946)">
        <path id="路径_2143" data-name="路径 2143" d="M734.215,233.906a.649.649,0,0,0-.865-.743l-20.85,7.959a.649.649,0,0,0,0,1.211l5.857,2.262v7.125a.649.649,0,0,0,1.228.292l2.422-4.807,5.912,4.387a.649.649,0,0,0,1.007-.332c5.52-18.1,5.281-17.31,5.291-17.355Zm-14.563,10.579,8.853-6.3c-7.618,8.037-7.22,7.614-7.253,7.659-.05.066.086-.192-1.6,3.153Zm8.3,5.517" transform="translate(-511.082 -0.173)" fill="#5094ef"/>
      </g>
      <g id="组件_18_21" data-name="组件 18 – 21" transform="translate(-1122.14 -338)">
        <path id="路径_566" data-name="路径 566" d="M128.279,24.653a.3.3,0,0,1-.3-.3.308.308,0,0,1,.087-.216l6.334-6.48-6.334-6.48a.31.31,0,0,1,0-.431.293.293,0,0,1,.421,0l6.544,6.7a.309.309,0,0,1,0,.43l-6.544,6.7A.294.294,0,0,1,128.279,24.653Z" transform="translate(-127.981 -10.653)" fill="#999"/>
      </g>
      <g id="组件_18_22" data-name="组件 18 – 22" transform="translate(-1122.14 -313)">
        <path id="路径_566-2" data-name="路径 566" d="M128.279,24.653a.3.3,0,0,1-.3-.3.308.308,0,0,1,.087-.216l6.334-6.48-6.334-6.48a.31.31,0,0,1,0-.431.293.293,0,0,1,.421,0l6.544,6.7a.309.309,0,0,1,0,.43l-6.544,6.7A.294.294,0,0,1,128.279,24.653Z" transform="translate(-127.981 -10.653)" fill="#39393e"/>
      </g>
    </g>
    <g id="组_1962" data-name="组 1962" transform="translate(-339 -175)">
      <path id="路径_2118" data-name="路径 2118" d="M360.777,368.659a11.923,11.923,0,0,0-4.2-4.107,10.793,10.793,0,0,0-11.149,0,11.916,11.916,0,0,0-4.2,4.107,1.438,1.438,0,0,0,0,1.54,11.911,11.911,0,0,0,4.2,4.108,10.81,10.81,0,0,0,11.149.005,11.843,11.843,0,0,0,4.2-4.113,1.438,1.438,0,0,0,0-1.54Zm-12.171-3.053a3.268,3.268,0,0,1,2.394-1,.535.535,0,1,1,0,1.071A2.324,2.324,0,0,0,348.679,368a.536.536,0,1,1-1.072,0,3.268,3.268,0,0,1,1-2.394Zm7.243,7.467a9.35,9.35,0,0,1-9.7,0,11.508,11.508,0,0,1-3.722-3.644,10.971,10.971,0,0,1,4.252-3.94A4.881,4.881,0,0,0,346,368a5,5,0,0,0,10,0,4.882,4.882,0,0,0-.681-2.511,10.971,10.971,0,0,1,4.252,3.94,11.511,11.511,0,0,1-3.722,3.644Zm0,0" transform="translate(0)" fill="#01b6b2"/>
    </g>
    <g id="组_1963" data-name="组 1963" transform="translate(-339 -201)">
      <path id="路径_2118-2" data-name="路径 2118" d="M360.777,368.659a11.923,11.923,0,0,0-4.2-4.107,10.793,10.793,0,0,0-11.149,0,11.916,11.916,0,0,0-4.2,4.107,1.438,1.438,0,0,0,0,1.54,11.911,11.911,0,0,0,4.2,4.108,10.81,10.81,0,0,0,11.149.005,11.843,11.843,0,0,0,4.2-4.113,1.438,1.438,0,0,0,0-1.54Zm-12.171-3.053a3.268,3.268,0,0,1,2.394-1,.535.535,0,1,1,0,1.071A2.324,2.324,0,0,0,348.679,368a.536.536,0,1,1-1.072,0,3.268,3.268,0,0,1,1-2.394Zm7.243,7.467a9.35,9.35,0,0,1-9.7,0,11.508,11.508,0,0,1-3.722-3.644,10.971,10.971,0,0,1,4.252-3.94A4.881,4.881,0,0,0,346,368a5,5,0,0,0,10,0,4.882,4.882,0,0,0-.681-2.511,10.971,10.971,0,0,1,4.252,3.94,11.511,11.511,0,0,1-3.722,3.644Zm0,0" transform="translate(0)" fill="#999"/>
    </g>
  </g>
</svg>
